<?xml version="1.0" encoding="UTF-8" standalone="no"?>
<svg
   xmlns:dc="http://purl.org/dc/elements/1.1/"
   xmlns:cc="http://creativecommons.org/ns#"
   xmlns:rdf="http://www.w3.org/1999/02/22-rdf-syntax-ns#"
   xmlns:svg="http://www.w3.org/2000/svg"
   xmlns="http://www.w3.org/2000/svg"
   xmlns:sodipodi="http://sodipodi.sourceforge.net/DTD/sodipodi-0.dtd"
   xmlns:inkscape="http://www.inkscape.org/namespaces/inkscape"
   id="Layer_1"
   data-name="Layer 1"
   viewBox="0 0 429.68451 395.75177"
   version="1.1"
   sodipodi:docname="gitlab.svg"
   width="429.68451"
   height="395.75177"
   inkscape:version="0.92.2 2405546, 2018-03-11">
  <metadata
     id="metadata26">
    <rdf:RDF>
      <cc:Work
         rdf:about="">
        <dc:format>image/svg+xml</dc:format>
        <dc:type
           rdf:resource="http://purl.org/dc/dcmitype/StillImage" />
        <dc:title>stacked_wm_grayscale</dc:title>
      </cc:Work>
    </rdf:RDF>
  </metadata>
  <sodipodi:namedview
     pagecolor="#ffffff"
     bordercolor="#666666"
     borderopacity="1"
     objecttolerance="10"
     gridtolerance="10"
     guidetolerance="10"
     inkscape:pageopacity="0"
     inkscape:pageshadow="2"
     inkscape:window-width="1920"
     inkscape:window-height="1021"
     id="namedview24"
     showgrid="false"
     inkscape:zoom="0.34604106"
     inkscape:cx="214.79313"
     inkscape:cy="95.09"
     inkscape:window-x="0"
     inkscape:window-y="0"
     inkscape:window-maximized="1"
     inkscape:current-layer="Layer_1" />
  <defs
     id="defs4">
    <style
       id="style2">.cls-1{fill:#5c5c5c;}.cls-2{fill:#a1a1a1;}.cls-3{fill:#787878;}</style>
  </defs>
  <title
     id="title6">stacked_wm_grayscale</title>
  <path
     id="path46"
     class="cls-2"
     d="m 428.84313,226.27176 -24,-74 -47.69,-146.6100005 a 8.19,8.19 0 0 0 -15.58,0 l -47.66,146.6200005 h -158.24 L 88.01313,5.6617595 a 8.19,8.19 0 0 0 -15.58,0 l -47.64,146.6200005 -24.00000017,74 a 16.38,16.38 0 0 0 5.99999997,18.31 l 208.0000002,151.16 208.1,-151.17 a 16.38,16.38 0 0 0 6,-18.31"
     inkscape:connector-curvature="0"
     style="fill:#a1a1a1" />
  <path
     id="path50"
     class="cls-1"
     d="m 214.79313,395.75176 v 0 l 79.12,-243.47 h -158.24 z"
     inkscape:connector-curvature="0"
     style="fill:#5c5c5c" />
  <path
     id="path58"
     class="cls-3"
     d="m 214.79313,395.75176 -79.12,-243.47 h -110.88 z"
     inkscape:connector-curvature="0"
     style="fill:#787878" />
  <path
     id="path66"
     class="cls-2"
     d="m 24.79313,152.28176 v 0 l -24.00000017,74 a 16.37,16.37 0 0 0 5.99999997,18.31 l 208.0000002,151.16 z"
     inkscape:connector-curvature="0"
     style="fill:#a1a1a1" />
  <path
     id="path74"
     class="cls-1"
     d="m 24.79313,152.28176 h 110.88 L 88.01313,5.6617595 a 8.19,8.19 0 0 0 -15.58,0 z"
     inkscape:connector-curvature="0"
     style="fill:#5c5c5c" />
  <path
     id="path78"
     class="cls-3"
     d="m 214.79313,395.75176 79.12,-243.47 h 110.88 z"
     inkscape:connector-curvature="0"
     style="fill:#787878" />
  <path
     id="path82"
     class="cls-2"
     d="m 404.79313,152.28176 v 0 l 24,74 a 16.37,16.37 0 0 1 -6,18.31 l -208,151.16 z"
     inkscape:connector-curvature="0"
     style="fill:#a1a1a1" />
  <path
     id="path86"
     class="cls-1"
     d="m 404.79313,152.28176 h -110.88 l 47.66,-146.6200005 a 8.19,8.19 0 0 1 15.58,0 z"
     inkscape:connector-curvature="0"
     style="fill:#5c5c5c" />
</svg>
